<svg width="222" height="133" viewBox="0 0 222 133" fill="none" xmlns="http://www.w3.org/2000/svg">
<g clip-path="url(#clip0_1_18)">
<path d="M22.3864 47.4545H27.1136L33.0909 55.3409L34.0909 56.6591L41.3864 66.3636H36.6591L31.2955 59.2045L30.3636 57.9318L22.3864 47.4545ZM45.25 38.9773C44.447 43.7803 42.9015 47.9545 40.6136 51.5C38.3258 55.0455 35.5303 57.7879 32.2273 59.7273C28.9242 61.6667 25.3333 62.6364 21.4545 62.6364C17.4697 62.6364 14.1061 61.6439 11.3636 59.6591C8.63636 57.6591 6.70455 54.8561 5.56818 51.25C4.43182 47.6288 4.26515 43.3712 5.06818 38.4773C5.87121 33.6742 7.41667 29.5 9.70455 25.9545C11.9924 22.4091 14.7955 19.6667 18.1136 17.7273C21.4318 15.7879 25.0379 14.8182 28.9318 14.8182C32.8712 14.8182 36.2045 15.8106 38.9318 17.7955C41.6591 19.7803 43.5985 22.5833 44.75 26.2045C45.9015 29.8106 46.0682 34.0682 45.25 38.9773ZM41.1818 38.4773C41.8788 34.3258 41.7879 30.7879 40.9091 27.8636C40.0455 24.9394 38.5606 22.7045 36.4545 21.1591C34.3485 19.5985 31.7955 18.8182 28.7955 18.8182C25.6894 18.8182 22.7727 19.6212 20.0455 21.2273C17.3182 22.8182 14.9924 25.1212 13.0682 28.1364C11.1439 31.1364 9.82576 34.75 9.11364 38.9773C8.43182 43.1136 8.52273 46.6515 9.38636 49.5909C10.25 52.5152 11.7348 54.7576 13.8409 56.3182C15.9621 57.8636 18.5303 58.6364 21.5455 58.6364C24.6667 58.6364 27.5909 57.8333 30.3182 56.2273C33.0455 54.6212 35.3636 52.3182 37.2727 49.3182C39.197 46.303 40.5 42.6894 41.1818 38.4773ZM91.0227 15.4545H95.2727L90.1818 46.2727C89.6515 49.4394 88.4394 52.2727 86.5455 54.7727C84.6515 57.2576 82.2576 59.2197 79.3636 60.6591C76.4848 62.0833 73.2955 62.7955 69.7955 62.7955C66.3106 62.7955 63.3636 62.0758 60.9545 60.6364C58.5455 59.197 56.803 57.2348 55.7273 54.75C54.6515 52.2652 54.3788 49.4394 54.9091 46.2727L60 15.4545H64.25L59.1818 45.9773C58.7879 48.447 58.9773 50.6515 59.75 52.5909C60.5227 54.5152 61.8106 56.0303 63.6136 57.1364C65.4318 58.2424 67.6894 58.7955 70.3864 58.7955C73.0985 58.7955 75.553 58.2424 77.75 57.1364C79.9621 56.0303 81.7803 54.5152 83.2045 52.5909C84.6439 50.6515 85.5682 48.447 85.9773 45.9773L91.0227 15.4545ZM111.875 15.4545L104.148 62H99.8977L107.625 15.4545H111.875ZM158.227 30H154C153.955 28.4091 153.636 26.9394 153.045 25.5909C152.455 24.2273 151.629 23.0379 150.568 22.0227C149.508 21.0076 148.242 20.2197 146.773 19.6591C145.318 19.0985 143.689 18.8182 141.886 18.8182C138.917 18.8182 136.076 19.5985 133.364 21.1591C130.652 22.7045 128.318 24.9773 126.364 27.9773C124.409 30.9773 123.076 34.6439 122.364 38.9773C121.652 43.25 121.765 46.8485 122.705 49.7727C123.644 52.6818 125.182 54.8864 127.318 56.3864C129.47 57.8864 131.992 58.6364 134.886 58.6364C136.735 58.6364 138.508 58.3561 140.205 57.7955C141.902 57.2348 143.462 56.4545 144.886 55.4545C146.311 54.4394 147.561 53.25 148.636 51.8864C149.712 50.5227 150.545 49.0455 151.136 47.4545H155.409C154.667 49.5909 153.629 51.5833 152.295 53.4318C150.962 55.2652 149.386 56.8712 147.568 58.25C145.765 59.6288 143.773 60.7045 141.591 61.4773C139.424 62.25 137.121 62.6364 134.682 62.6364C130.712 62.6364 127.356 61.6439 124.614 59.6591C121.886 57.6742 119.947 54.8788 118.795 51.2727C117.659 47.6515 117.5 43.3864 118.318 38.4773C119.121 33.6591 120.659 29.4773 122.932 25.9318C125.22 22.3864 128.023 19.6515 131.341 17.7273C134.659 15.7879 138.265 14.8182 142.159 14.8182C144.644 14.8182 146.871 15.2045 148.841 15.9773C150.811 16.7348 152.485 17.8106 153.864 19.2045C155.258 20.5833 156.326 22.1894 157.068 24.0227C157.811 25.8561 158.197 27.8485 158.227 30ZM162.96 62L170.688 15.4545H174.938L170.778 40.5227H171.21L198.074 15.4545H203.665L180.233 36.9773L195.847 62H190.665L177.119 39.9318L169.756 46.8864L167.21 62H162.96Z" fill="black"/>
<path d="M34.9091 92.5C34.5909 91.3939 34.1439 90.4167 33.5682 89.5682C32.9924 88.7045 32.2879 87.9773 31.4545 87.3864C30.6364 86.7803 29.697 86.3182 28.6364 86C27.5909 85.6818 26.4318 85.5227 25.1591 85.5227C22.7803 85.5227 20.6894 86.1136 18.8864 87.2955C17.0985 88.4773 15.7045 90.197 14.7045 92.4545C13.7045 94.697 13.2045 97.4394 13.2045 100.682C13.2045 103.924 13.697 106.682 14.6818 108.955C15.6667 111.227 17.0606 112.962 18.8636 114.159C20.6667 115.341 22.7955 115.932 25.25 115.932C27.4773 115.932 29.3788 115.538 30.9545 114.75C32.5455 113.947 33.7576 112.818 34.5909 111.364C35.4394 109.909 35.8636 108.189 35.8636 106.205L37.8636 106.5H25.8636V99.0909H45.3409V104.955C45.3409 109.045 44.4773 112.561 42.75 115.5C41.0227 118.424 38.6439 120.682 35.6136 122.273C32.5833 123.848 29.1136 124.636 25.2045 124.636C20.8409 124.636 17.0076 123.674 13.7045 121.75C10.4015 119.811 7.82576 117.061 5.97727 113.5C4.14394 109.924 3.22727 105.682 3.22727 100.773C3.22727 97 3.77273 93.6364 4.86364 90.6818C5.9697 87.7121 7.51515 85.197 9.5 83.1364C11.4848 81.0758 13.7955 79.5076 16.4318 78.4318C19.0682 77.3561 21.9242 76.8182 25 76.8182C27.6364 76.8182 30.0909 77.2045 32.3636 77.9773C34.6364 78.7348 36.6515 79.8106 38.4091 81.2045C40.1818 82.5985 41.6288 84.2576 42.75 86.1818C43.8712 88.0909 44.5909 90.197 44.9091 92.5H34.9091ZM52.733 124V77.4545H71.0966C74.6117 77.4545 77.6117 78.0833 80.0966 79.3409C82.5966 80.5833 84.4981 82.3485 85.8011 84.6364C87.1193 86.9091 87.7784 89.5833 87.7784 92.6591C87.7784 95.75 87.1117 98.4091 85.7784 100.636C84.4451 102.848 82.5133 104.545 79.983 105.727C77.4678 106.909 74.4223 107.5 70.8466 107.5H58.5511V99.5909H69.2557C71.1345 99.5909 72.6951 99.3333 73.9375 98.8182C75.1799 98.303 76.1042 97.5303 76.7102 96.5C77.3314 95.4697 77.642 94.1894 77.642 92.6591C77.642 91.1136 77.3314 89.8106 76.7102 88.75C76.1042 87.6894 75.1723 86.8864 73.9148 86.3409C72.6723 85.7803 71.1042 85.5 69.2102 85.5H62.5739V124H52.733ZM77.8693 102.818L89.4375 124H78.5739L67.2557 102.818H77.8693ZM123.483 77.4545H133.324V107.682C133.324 111.076 132.513 114.045 130.892 116.591C129.286 119.136 127.036 121.121 124.142 122.545C121.248 123.955 117.877 124.659 114.028 124.659C110.165 124.659 106.786 123.955 103.892 122.545C100.998 121.121 98.7481 119.136 97.142 116.591C95.536 114.045 94.733 111.076 94.733 107.682V77.4545H104.574V106.841C104.574 108.614 104.96 110.189 105.733 111.568C106.521 112.947 107.627 114.03 109.051 114.818C110.475 115.606 112.134 116 114.028 116C115.938 116 117.597 115.606 119.006 114.818C120.43 114.03 121.528 112.947 122.301 111.568C123.089 110.189 123.483 108.614 123.483 106.841V77.4545ZM141.42 124V77.4545H160.057C163.481 77.4545 166.337 77.9621 168.625 78.9773C170.913 79.9924 172.633 81.4015 173.784 83.2045C174.936 84.9924 175.511 87.053 175.511 89.3864C175.511 91.2045 175.148 92.803 174.42 94.1818C173.693 95.5455 172.693 96.6667 171.42 97.5455C170.163 98.4091 168.723 99.0227 167.102 99.3864V99.8409C168.875 99.9167 170.534 100.417 172.08 101.341C173.64 102.265 174.905 103.561 175.875 105.227C176.845 106.879 177.33 108.848 177.33 111.136C177.33 113.606 176.716 115.811 175.489 117.75C174.277 119.674 172.481 121.197 170.102 122.318C167.723 123.439 164.792 124 161.307 124H141.42ZM151.261 115.955H159.284C162.027 115.955 164.027 115.432 165.284 114.386C166.542 113.326 167.17 111.917 167.17 110.159C167.17 108.871 166.86 107.735 166.239 106.75C165.617 105.765 164.731 104.992 163.58 104.432C162.443 103.871 161.087 103.591 159.511 103.591H151.261V115.955ZM151.261 96.9318H158.557C159.905 96.9318 161.102 96.697 162.148 96.2273C163.208 95.7424 164.042 95.0606 164.648 94.1818C165.269 93.303 165.58 92.25 165.58 91.0227C165.58 89.3409 164.981 87.9848 163.784 86.9545C162.602 85.9242 160.92 85.4091 158.739 85.4091H151.261V96.9318ZM208.983 90.8409C208.801 89.0076 208.021 87.5833 206.642 86.5682C205.263 85.553 203.392 85.0455 201.028 85.0455C199.422 85.0455 198.066 85.2727 196.96 85.7273C195.854 86.1667 195.006 86.7803 194.415 87.5682C193.839 88.3561 193.551 89.25 193.551 90.25C193.521 91.0833 193.695 91.8106 194.074 92.4318C194.468 93.053 195.006 93.5909 195.688 94.0455C196.369 94.4848 197.157 94.8712 198.051 95.2045C198.945 95.5227 199.9 95.7955 200.915 96.0227L205.097 97.0227C207.127 97.4773 208.991 98.0833 210.688 98.8409C212.384 99.5985 213.854 100.53 215.097 101.636C216.339 102.742 217.301 104.045 217.983 105.545C218.68 107.045 219.036 108.765 219.051 110.705C219.036 113.553 218.309 116.023 216.869 118.114C215.445 120.189 213.384 121.803 210.688 122.955C208.006 124.091 204.771 124.659 200.983 124.659C197.225 124.659 193.953 124.083 191.165 122.932C188.392 121.78 186.225 120.076 184.665 117.818C183.119 115.545 182.309 112.735 182.233 109.386H191.756C191.862 110.947 192.309 112.25 193.097 113.295C193.9 114.326 194.968 115.106 196.301 115.636C197.65 116.152 199.172 116.409 200.869 116.409C202.536 116.409 203.983 116.167 205.21 115.682C206.453 115.197 207.415 114.523 208.097 113.659C208.778 112.795 209.119 111.803 209.119 110.682C209.119 109.636 208.809 108.758 208.188 108.045C207.581 107.333 206.688 106.727 205.506 106.227C204.339 105.727 202.907 105.273 201.21 104.864L196.142 103.591C192.218 102.636 189.119 101.144 186.847 99.1136C184.574 97.0833 183.445 94.3485 183.46 90.9091C183.445 88.0909 184.195 85.6288 185.71 83.5227C187.241 81.4167 189.339 79.7727 192.006 78.5909C194.672 77.4091 197.703 76.8182 201.097 76.8182C204.551 76.8182 207.566 77.4091 210.142 78.5909C212.733 79.7727 214.748 81.4167 216.188 83.5227C217.627 85.6288 218.369 88.0682 218.415 90.8409H208.983Z" fill="black"/>
</g>
<defs>
<clipPath id="clip0_1_18">
<rect width="222" height="133" fill="white"/>
</clipPath>
</defs>
</svg>
